<svg width="154" height="127" viewBox="0 0 154 127" fill="none" xmlns="http://www.w3.org/2000/svg">
<path d="M127.906 1.13852C123.503 0.197069 119.18 3.00827 118.252 7.41764C117.326 11.8277 120.145 16.1656 124.549 17.1071C128.954 18.0502 133.277 15.2364 134.205 10.8296C135.132 6.41858 132.312 2.07901 127.906 1.13852ZM110.874 17.5912C112.348 19.4521 114.228 20.9516 116.425 21.8491L123.719 24.8229C127.48 26.3569 131.704 26.4673 135.472 24.9654C136.368 24.6069 137.316 24.3435 138.309 24.1867C145.749 23.0083 152.737 28.2755 153.601 35.8634C154.373 42.6367 149.802 48.9545 143.142 50.3272C134.17 52.1793 129.964 45.6325 128.221 41.237C127.242 38.7706 125.285 36.821 122.83 35.8199L116.673 33.3081C112.838 31.743 108.588 34.3017 108.172 38.4222L107.69 43.2026C107.124 48.828 108.948 54.3919 112.559 58.7515C114.395 60.9694 115.682 63.6928 116.172 66.7418C117.651 75.9508 111.286 84.5883 102.01 85.8311C93.4039 86.9847 84.8945 80.7227 83.4056 72.1461C82.3267 65.9307 84.8313 59.9511 89.4089 56.3014C93.8019 52.7961 96.6648 47.7196 97.2292 42.1151L98.1438 33.0414C98.3866 30.6389 98.0303 28.2042 97.0381 26.0023C96.7447 25.355 96.5344 24.6619 96.4169 23.9286C95.8977 20.6974 97.346 17.6101 99.874 15.8865L100.657 15.4167C101.425 15.0112 102.272 14.719 103.179 14.576C106.198 14.0972 109.098 15.3454 110.874 17.5912Z" fill="url(#paint0_linear_6_152)"/>
<path d="M29.0325 110.019C24.6286 109.077 20.306 111.888 19.3786 116.299C18.451 120.706 21.2712 125.046 25.6751 125.987C30.0817 126.929 34.4026 124.119 35.33 119.708C36.2583 115.299 33.4391 110.961 29.0325 110.019ZM42.1825 110.621C40.8062 108.686 39.0026 107.093 36.855 106.084L29.7203 102.741C26.0409 101.016 21.8287 100.689 17.9891 101.997C17.0763 102.307 16.1135 102.523 15.1153 102.627C7.62431 103.423 0.913525 97.8057 0.437263 90.1862C0.0124479 83.3828 4.90082 77.3092 11.6234 76.2765C20.6765 74.8873 24.546 81.6397 26.0626 86.1188C26.9134 88.6328 28.7681 90.6812 31.1698 91.8053L37.1921 94.6296C40.942 96.3872 45.3188 94.0527 45.9448 89.9589L46.6688 85.211C47.5235 79.6223 45.9824 73.9714 42.5998 69.4351C40.879 67.1236 39.7344 64.3407 39.4001 61.2712C38.3932 51.9978 45.1897 43.6992 54.5183 42.9341C63.1751 42.2235 71.3543 48.9111 72.404 57.551C73.1652 63.8156 70.3566 69.6552 65.5983 73.0692C61.0307 76.3418 57.9114 81.2643 57.0623 86.8318L55.6847 95.8461C55.3194 98.2298 55.5527 100.68 56.4326 102.931C56.6886 103.591 56.8649 104.294 56.9445 105.032C57.2978 108.285 55.6957 111.295 53.0815 112.885L52.2766 113.316C51.4867 113.681 50.6256 113.929 49.7135 114.024C46.672 114.348 43.8413 112.953 42.1825 110.621Z" fill="url(#paint1_linear_6_152)"/>
<defs>
<linearGradient id="paint0_linear_6_152" x1="136.332" y1="3.71917" x2="14.9297" y2="107.58" gradientUnits="userSpaceOnUse">
<stop stop-color="white" stop-opacity="0.652873"/>
<stop offset="0.403152" stop-color="#C7C7C7" stop-opacity="0.779455"/>
<stop offset="0.541007" stop-color="#EBEBEB" stop-opacity="0.692871"/>
<stop offset="0.819808" stop-color="#A4A4A4" stop-opacity="0.645026"/>
<stop offset="1" stop-opacity="0"/>
</linearGradient>
<linearGradient id="paint1_linear_6_152" x1="136.332" y1="3.71917" x2="14.9297" y2="107.58" gradientUnits="userSpaceOnUse">
<stop stop-color="white" stop-opacity="0.652873"/>
<stop offset="0.403152" stop-color="#C7C7C7" stop-opacity="0.779455"/>
<stop offset="0.541007" stop-color="#EBEBEB" stop-opacity="0.692871"/>
<stop offset="0.819808" stop-color="#A4A4A4" stop-opacity="0.645026"/>
<stop offset="1" stop-opacity="0"/>
</linearGradient>
</defs>
</svg>
