<svg width="2705" height="790" viewBox="0 0 2705 790" fill="none" xmlns="http://www.w3.org/2000/svg">
<path d="M1866.61 290.658C1875.08 311.537 1898.86 321.542 1919.72 313.006C1940.58 304.457 1950.63 280.603 1942.16 259.725C1933.7 238.837 1909.91 228.836 1889.06 237.368C1868.19 245.913 1858.14 269.775 1866.61 290.658ZM1982.56 314.989C1986.13 303.66 1987.06 291.668 1984.61 280.051L1976.44 241.498C1972.23 221.616 1960.83 203.819 1944.03 192.434C1940.03 189.73 1936.28 186.542 1932.84 182.873C1907.07 155.375 1909.26 111.649 1938.26 86.7648C1964.14 64.5529 2003.13 65.7414 2027.51 89.4655C2060.37 121.412 2045.07 157.211 2031.77 176.769C2024.3 187.75 2021.72 201.324 2024.47 214.304L2031.36 246.849C2035.65 267.124 2058.17 277.536 2076.4 267.691L2097.55 256.265C2122.43 242.812 2140.35 219.639 2148.27 192.446C2152.29 178.615 2159.96 165.641 2171.21 155.052C2205.19 123.072 2258.82 125.172 2290.01 160.093C2318.95 192.49 2316.92 245.307 2285.58 275.553C2262.88 297.471 2231.08 303.89 2203.12 295.183C2176.27 286.834 2147.21 289.233 2122.42 302.633L2082.28 324.322C2071.65 330.062 2062.57 338.373 2056.24 348.664C2054.38 351.696 2052.1 354.513 2049.4 357.059C2037.47 368.281 2020.62 370.952 2006.39 365.324L2002.25 363.402C1998.41 361.359 1994.82 358.672 1991.68 355.32C1981.22 344.163 1978.25 328.651 1982.56 314.989Z" fill="url(#paint0_linear_8_159)"/>
<path d="M2595.07 394.36C2603.53 415.238 2627.31 425.244 2648.18 416.699C2669.03 408.167 2679.08 384.305 2670.61 363.426C2662.14 342.535 2638.38 332.533 2617.51 341.078C2596.64 349.615 2586.6 373.468 2595.07 394.36ZM2560.64 338.219C2556.49 349.352 2554.96 361.291 2556.81 373.016L2563 411.946C2566.19 432.024 2576.66 450.384 2592.86 462.609C2596.71 465.518 2600.3 468.899 2603.54 472.74C2627.87 501.523 2623.45 545.083 2593.23 568.449C2566.26 589.31 2527.38 586.122 2504.23 561.185C2473.06 527.599 2490.15 492.618 2504.44 473.762C2512.46 463.18 2515.74 449.749 2513.65 436.648L2508.44 403.782C2505.18 383.32 2483.23 371.751 2464.52 380.654L2442.83 390.987C2417.29 403.139 2398.22 425.386 2388.93 452.129C2384.19 465.745 2375.88 478.298 2364.11 488.301C2328.54 518.507 2275.09 513.665 2245.73 477.186C2218.48 443.336 2223.21 390.692 2256.04 362.086C2279.84 341.345 2311.91 336.579 2339.4 346.696C2365.78 356.42 2394.92 355.515 2420.36 343.399L2461.55 323.794C2472.45 318.614 2481.94 310.769 2488.79 300.806C2490.8 297.892 2493.22 295.186 2496.05 292.787C2508.53 282.19 2525.49 280.371 2539.41 286.732L2543.46 288.854C2547.18 291.102 2550.63 293.969 2553.59 297.48C2563.47 309.164 2565.64 324.804 2560.64 338.219Z" fill="url(#paint1_linear_8_159)"/>
<path d="M682.514 131.105C660.482 126.395 638.856 140.459 634.212 162.519C629.58 184.582 643.685 206.284 665.717 210.994C687.754 215.712 709.383 201.635 714.024 179.588C718.664 157.52 704.554 135.81 682.514 131.105ZM597.303 213.415C604.678 222.726 614.08 230.227 625.072 234.718L661.564 249.595C680.382 257.269 701.511 257.822 720.361 250.308C724.844 248.515 729.59 247.196 734.554 246.412C771.776 240.517 806.738 266.868 811.062 304.829C814.922 338.715 792.053 370.323 758.733 377.19C713.851 386.456 692.808 353.703 684.088 331.713C679.187 319.374 669.401 309.62 657.115 304.612L626.314 292.046C607.127 284.215 585.866 297.016 583.783 317.631L581.372 341.546C578.543 369.689 587.666 397.525 605.731 419.336C614.919 430.432 621.355 444.056 623.806 459.31C631.205 505.382 599.365 548.594 552.958 554.811C509.901 560.583 467.33 529.255 459.881 486.347C454.484 455.252 467.014 425.337 489.915 407.078C511.893 389.542 526.216 364.144 529.039 336.106L533.615 290.711C534.829 278.692 533.047 266.511 528.083 255.496C526.615 252.257 525.563 248.79 524.975 245.121C522.377 228.956 529.623 213.51 542.271 204.887L546.186 202.537C550.03 200.508 554.268 199.046 558.804 198.331C573.908 195.936 588.415 202.18 597.303 213.415Z" fill="url(#paint2_linear_8_159)"/>
<path d="M187.859 675.819C165.827 671.109 144.201 685.173 139.562 707.241C134.921 729.288 149.03 750.998 171.062 755.708C193.108 760.422 214.725 746.362 219.365 724.294C224.009 702.235 209.905 680.533 187.859 675.819ZM253.647 678.832C246.761 669.15 237.738 661.183 226.994 656.135L191.3 639.409C172.892 630.781 151.819 629.145 132.61 635.69C128.044 637.241 123.227 638.32 118.233 638.841C80.7564 642.824 47.1832 614.719 44.8005 576.6C42.6752 542.563 67.1312 512.178 100.763 507.011C146.055 500.061 165.414 533.843 173.001 556.251C177.257 568.828 186.536 579.076 198.552 584.7L228.681 598.83C247.441 607.623 269.337 595.943 272.469 575.462L276.091 551.709C280.367 523.75 272.657 495.479 255.735 472.785C247.126 461.22 241.399 447.298 239.727 431.941C234.69 385.548 268.692 344.031 315.362 340.203C358.67 336.648 399.59 370.105 404.842 413.33C408.65 444.671 394.599 473.886 370.793 490.965C347.942 507.338 332.337 531.964 328.089 559.818L321.197 604.916C319.369 616.841 320.536 629.097 324.938 640.359C326.219 643.66 327.101 647.181 327.499 650.87C329.267 667.145 321.252 682.206 308.173 690.16L304.147 692.317C300.195 694.139 295.887 695.384 291.324 695.858C276.108 697.478 261.946 690.497 253.647 678.832Z" fill="url(#paint3_linear_8_159)"/>
<defs>
<linearGradient id="paint0_linear_8_159" x1="1853.64" y1="248.524" x2="2624.57" y2="459.602" gradientUnits="userSpaceOnUse">
<stop stop-color="white" stop-opacity="0.652873"/>
<stop offset="0.403152" stop-color="#C7C7C7" stop-opacity="0.779455"/>
<stop offset="0.541007" stop-color="#EBEBEB" stop-opacity="0.692871"/>
<stop offset="0.819808" stop-color="#A4A4A4" stop-opacity="0.645026"/>
<stop offset="1" stop-opacity="0"/>
</linearGradient>
<linearGradient id="paint1_linear_8_159" x1="1853.64" y1="248.524" x2="2624.57" y2="459.602" gradientUnits="userSpaceOnUse">
<stop stop-color="white" stop-opacity="0.652873"/>
<stop offset="0.403152" stop-color="#C7C7C7" stop-opacity="0.779455"/>
<stop offset="0.541007" stop-color="#EBEBEB" stop-opacity="0.692871"/>
<stop offset="0.819808" stop-color="#A4A4A4" stop-opacity="0.645026"/>
<stop offset="1" stop-opacity="0"/>
</linearGradient>
<linearGradient id="paint2_linear_8_159" x1="724.667" y1="144.016" x2="117.304" y2="663.619" gradientUnits="userSpaceOnUse">
<stop stop-color="white" stop-opacity="0.652873"/>
<stop offset="0.403152" stop-color="#C7C7C7" stop-opacity="0.779455"/>
<stop offset="0.541007" stop-color="#EBEBEB" stop-opacity="0.692871"/>
<stop offset="0.819808" stop-color="#A4A4A4" stop-opacity="0.645026"/>
<stop offset="1" stop-opacity="0"/>
</linearGradient>
<linearGradient id="paint3_linear_8_159" x1="724.667" y1="144.016" x2="117.304" y2="663.619" gradientUnits="userSpaceOnUse">
<stop stop-color="white" stop-opacity="0.652873"/>
<stop offset="0.403152" stop-color="#C7C7C7" stop-opacity="0.779455"/>
<stop offset="0.541007" stop-color="#EBEBEB" stop-opacity="0.692871"/>
<stop offset="0.819808" stop-color="#A4A4A4" stop-opacity="0.645026"/>
<stop offset="1" stop-opacity="0"/>
</linearGradient>
</defs>
</svg>
