<svg width="320" height="149" viewBox="0 0 320 149" fill="none" xmlns="http://www.w3.org/2000/svg">
<path d="M244.18 54.3992C244.374 58.1971 247.612 61.1085 251.412 60.902C255.211 60.6932 258.133 57.4456 257.938 53.6477C257.745 49.8487 254.505 46.9373 250.708 47.1437C246.907 47.3514 243.984 50.6002 244.18 54.3992ZM261.322 64.696C262.518 63.087 263.33 61.2263 263.582 59.238L264.413 52.6384C264.843 49.2351 264.01 45.7662 261.961 43.0211C261.473 42.3686 261.051 41.6524 260.706 40.8773C258.119 35.0663 260.887 28.2149 266.888 25.8515C272.244 23.7419 278.396 26.0895 280.971 31.222C284.443 38.1347 280.022 42.9964 276.818 45.3787C275.02 46.7168 273.857 48.7385 273.578 50.9604L272.874 56.5311C272.436 60.0014 275.452 62.9085 278.904 62.3475L282.908 61.6958C287.62 60.9277 291.76 58.2243 294.527 54.326C295.935 52.3434 297.875 50.6988 300.255 49.6328C307.443 46.4139 315.879 49.7172 318.92 57.0117C321.742 63.7795 318.494 72.0889 311.824 75.1778C306.99 77.4162 301.565 76.6802 297.588 73.7442C293.769 70.927 289.002 69.7013 284.308 70.4659L276.707 71.703C274.694 72.03 272.786 72.8528 271.207 74.1433C270.743 74.5241 270.223 74.8471 269.651 75.1032C267.129 76.2329 264.294 75.7264 262.336 74.041L261.782 73.5053C261.283 72.9673 260.859 72.3401 260.545 71.6319C259.494 69.274 259.879 66.636 261.322 64.696Z" fill="url(#paint0_linear_5216_404)"/>
<path d="M354.599 111.251C354.793 115.049 358.031 117.96 361.832 117.752C365.629 117.546 368.552 114.297 368.358 110.499C368.163 106.699 364.926 103.789 361.126 103.996C357.326 104.203 354.404 107.45 354.599 111.251ZM352.216 100.393C350.938 101.939 350.034 103.758 349.68 105.73L348.512 112.28C347.91 115.658 348.564 119.166 350.47 122.011C350.922 122.688 351.309 123.426 351.612 124.218C353.898 130.154 350.783 136.856 344.672 138.909C339.215 140.743 333.193 138.083 330.881 132.825C327.77 125.745 332.432 121.113 335.754 118.897C337.618 117.653 338.884 115.693 339.276 113.488L340.263 107.959C340.877 104.516 338.017 101.456 334.541 101.84L330.51 102.287C325.764 102.812 321.492 105.304 318.531 109.054C317.022 110.963 315.002 112.505 312.571 113.448C305.227 116.296 296.973 112.566 294.31 105.125C291.839 98.2189 295.506 90.0858 302.324 87.3412C307.267 85.3512 312.644 86.3658 316.469 89.5008C320.136 92.5112 324.833 93.9797 329.56 93.4555L337.214 92.609C339.238 92.386 341.185 91.6603 342.829 90.4506C343.311 90.0975 343.847 89.7999 344.431 89.5738C347.007 88.5746 349.813 89.2234 351.681 91.0083L352.208 91.5706C352.678 92.1353 353.069 92.7833 353.346 93.5065C354.275 95.9166 353.755 98.5305 352.216 100.393Z" fill="url(#paint1_linear_5216_404)"/>
<path d="M31.5905 4.83793C27.7927 5.03252 24.8812 8.27026 25.0877 12.0697C25.2965 15.8692 28.5442 18.7913 32.3421 18.5967C36.1411 18.4033 39.0525 15.1632 38.846 11.3661C38.6384 7.56543 35.3895 4.64219 31.5905 4.83793ZM21.2937 21.9803C22.9028 23.176 24.7634 23.9883 26.7518 24.2402L33.3513 25.0716C36.7546 25.5008 40.2235 24.6678 42.9686 22.6192C43.6212 22.131 44.3373 21.7088 45.1125 21.3641C50.9235 18.7768 57.7749 21.5457 60.1383 27.5459C62.2478 32.9021 59.9002 39.0543 54.7677 41.6296C47.855 45.101 42.9933 40.6803 40.611 37.476C39.2729 35.6784 37.2512 34.5157 35.0294 34.2358L29.4586 33.5327C25.9883 33.0942 23.0813 36.11 23.6422 39.562L24.2939 43.5665C25.062 48.2786 27.7655 52.4183 31.6637 55.1851C33.6464 56.5928 35.291 58.5329 36.357 60.9128C39.5759 68.1011 36.2726 76.5373 28.978 79.5783C22.2103 82.4003 13.9008 79.1524 10.812 72.4822C8.57353 67.6483 9.30956 62.2236 12.2456 58.2462C15.0628 54.4269 16.2884 49.6605 15.5238 44.9658L14.2868 37.3648C13.9597 35.3521 13.137 33.4441 11.8465 31.8649C11.4657 31.401 11.1426 30.8817 10.8865 30.3092C9.75681 27.7871 10.2634 24.9524 11.9487 22.994L12.4844 22.4398C13.0225 21.941 13.6496 21.5176 14.3578 21.2028C16.7157 20.1524 19.3538 20.5368 21.2937 21.9803Z" fill="url(#paint2_linear_5216_404)"/>
<path d="M-25.2609 115.257C-29.0588 115.452 -31.9702 118.689 -31.7626 122.49C-31.5561 126.287 -28.3073 129.21 -24.5094 129.016C-20.7092 128.821 -17.799 125.585 -18.0066 121.784C-18.2131 117.985 -21.4607 115.062 -25.2609 115.257ZM-14.4033 112.874C-15.9489 111.596 -17.7681 110.692 -19.7403 110.338L-26.2906 109.17C-29.6686 108.568 -33.1758 109.222 -36.0217 111.128C-36.6985 111.58 -37.4367 111.967 -38.2281 112.27C-44.1642 114.556 -50.8658 111.441 -52.9195 105.33C-54.753 99.8737 -52.0931 93.8513 -46.8355 91.5396C-39.7548 88.4279 -35.1228 93.0899 -32.9069 96.4119C-31.6634 98.2765 -29.7029 99.542 -27.4983 99.934L-21.9688 100.921C-18.5261 101.535 -15.4663 98.6747 -15.8504 95.1987L-16.2976 91.1678C-16.8218 86.4225 -19.3139 82.1501 -23.0644 79.1893C-24.9732 77.68 -26.515 75.6602 -27.4586 73.2296C-30.3066 65.8857 -26.5766 57.6314 -19.1348 54.9685C-12.2291 52.4969 -4.09608 56.1641 -1.35149 62.982C0.638561 67.9254 -0.376078 73.3024 -3.51108 77.127C-6.52144 80.7946 -7.98992 85.4915 -7.46571 90.2183L-6.61924 97.872C-6.39623 99.8961 -5.67051 101.843 -4.46084 103.487C-4.10778 103.97 -3.81012 104.505 -3.58409 105.089C-2.5849 107.665 -3.23369 110.471 -5.01854 112.339L-5.58084 112.867C-6.14552 113.336 -6.79352 113.728 -7.51676 114.004C-9.92681 114.933 -12.5407 114.414 -14.4033 112.874Z" fill="url(#paint3_linear_5216_404)"/>
<defs>
<linearGradient id="paint0_linear_5216_404" x1="244.443" y1="46.9626" x2="355.692" y2="123.287" gradientUnits="userSpaceOnUse">
<stop stop-color="white" stop-opacity="0.652873"/>
<stop offset="0.403152" stop-color="#C7C7C7" stop-opacity="0.779455"/>
<stop offset="0.541007" stop-color="#EBEBEB" stop-opacity="0.692871"/>
<stop offset="0.819808" stop-color="#A4A4A4" stop-opacity="0.645026"/>
<stop offset="1" stop-opacity="0"/>
</linearGradient>
<linearGradient id="paint1_linear_5216_404" x1="244.443" y1="46.9626" x2="355.692" y2="123.287" gradientUnits="userSpaceOnUse">
<stop stop-color="white" stop-opacity="0.652873"/>
<stop offset="0.403152" stop-color="#C7C7C7" stop-opacity="0.779455"/>
<stop offset="0.541007" stop-color="#EBEBEB" stop-opacity="0.692871"/>
<stop offset="0.819808" stop-color="#A4A4A4" stop-opacity="0.645026"/>
<stop offset="1" stop-opacity="0"/>
</linearGradient>
<linearGradient id="paint2_linear_5216_404" x1="39.0271" y1="5.10136" x2="-37.2971" y2="116.35" gradientUnits="userSpaceOnUse">
<stop stop-color="white" stop-opacity="0.652873"/>
<stop offset="0.403152" stop-color="#C7C7C7" stop-opacity="0.779455"/>
<stop offset="0.541007" stop-color="#EBEBEB" stop-opacity="0.692871"/>
<stop offset="0.819808" stop-color="#A4A4A4" stop-opacity="0.645026"/>
<stop offset="1" stop-opacity="0"/>
</linearGradient>
<linearGradient id="paint3_linear_5216_404" x1="39.0271" y1="5.10136" x2="-37.2971" y2="116.35" gradientUnits="userSpaceOnUse">
<stop stop-color="white" stop-opacity="0.652873"/>
<stop offset="0.403152" stop-color="#C7C7C7" stop-opacity="0.779455"/>
<stop offset="0.541007" stop-color="#EBEBEB" stop-opacity="0.692871"/>
<stop offset="0.819808" stop-color="#A4A4A4" stop-opacity="0.645026"/>
<stop offset="1" stop-opacity="0"/>
</linearGradient>
</defs>
</svg>
