<svg width="98" height="106" viewBox="0 0 98 106" fill="none" xmlns="http://www.w3.org/2000/svg">
<path d="M25.2619 105.288C28.4807 105.123 30.9482 102.379 30.7732 99.1593C30.5962 95.9392 27.8437 93.4626 24.625 93.6275C21.4052 93.7915 18.9377 96.5375 19.1127 99.7557C19.2887 102.977 22.0421 105.454 25.2619 105.288ZM33.9887 90.7599C32.625 89.7464 31.048 89.058 29.3629 88.8445L23.7696 88.1399C20.8852 87.7762 17.9452 88.4821 15.6187 90.2183C15.0657 90.6321 14.4587 90.99 13.8017 91.2821C8.87676 93.4749 3.07003 91.1282 1.06699 86.0428C-0.720914 81.5033 1.26874 76.2892 5.61868 74.1066C11.4773 71.1645 15.5978 74.9111 17.6168 77.6268C18.7509 79.1504 20.4643 80.1358 22.3474 80.373L27.0687 80.9689C30.0099 81.3405 32.4737 78.7845 31.9983 75.8589L31.4459 72.465C30.795 68.4714 28.5037 64.9629 25.1999 62.618C23.5195 61.4249 22.1257 59.7806 21.2222 57.7636C18.4941 51.6714 21.2937 44.5215 27.4761 41.9441C33.2119 39.5524 40.2543 42.3051 42.8722 47.9583C44.7694 52.0551 44.1456 56.6527 41.6572 60.0237C39.2696 63.2605 38.2308 67.3002 38.8788 71.2791L39.9273 77.7211C40.2044 79.4269 40.9017 81.044 41.9955 82.3824C42.3182 82.7756 42.592 83.2157 42.809 83.7009C43.7665 85.8384 43.3372 88.2409 41.9088 89.9007L41.4548 90.3704C40.9988 90.7931 40.4672 91.152 39.867 91.4188C37.8687 92.309 35.6328 91.9832 33.9887 90.7599Z" fill="url(#paint0_linear_7_154)"/>
<path d="M73.4449 11.7056C76.6636 11.5406 79.1311 8.79657 78.9552 5.57545C78.7802 2.35728 76.0267 -0.120246 72.8079 0.0446752C69.5872 0.209594 67.1207 2.95267 67.2966 6.17379C67.4716 9.39393 70.2241 11.8705 73.4449 11.7056ZM64.2428 13.7251C65.5527 14.808 67.0945 15.5748 68.766 15.8744L74.3175 16.8641C77.1805 17.3747 80.1529 16.8206 82.5649 15.205C83.1385 14.8216 83.7641 14.4942 84.4348 14.2373C89.4659 12.2993 95.1456 14.9398 96.8862 20.1189C98.4401 24.7433 96.1858 29.8475 91.7298 31.8066C85.7288 34.4439 81.8031 30.4928 79.925 27.6773C78.8711 26.097 77.2095 25.0244 75.3411 24.6922L70.6547 23.8554C67.7369 23.3349 65.1437 25.7595 65.4692 28.7055L65.8482 32.1218C66.2925 36.1435 68.4046 39.7645 71.5832 42.2738C73.201 43.553 74.5077 45.2649 75.3074 47.3249C77.7212 53.549 74.5599 60.5447 68.2529 62.8015C62.4001 64.8963 55.5071 61.7882 53.181 56.0099C51.4944 51.8203 52.3544 47.2631 55.0114 44.0217C57.5627 40.9133 58.8073 36.9326 58.363 32.9265L57.6456 26.4398C57.4566 24.7243 56.8415 23.074 55.8163 21.6808C55.5171 21.272 55.2648 20.8182 55.0732 20.3233C54.2264 18.1398 54.7762 15.7619 56.289 14.1786L56.7655 13.7315C57.2441 13.3333 57.7933 13.0018 58.4063 12.7674C60.4488 11.9801 62.6642 12.4205 64.2428 13.7251Z" fill="url(#paint1_linear_7_154)"/>
<defs>
<linearGradient id="paint0_linear_7_154" x1="18.9592" y1="105.065" x2="83.6458" y2="10.779" gradientUnits="userSpaceOnUse">
<stop stop-color="white" stop-opacity="0.652873"/>
<stop offset="0.403152" stop-color="#C7C7C7" stop-opacity="0.779455"/>
<stop offset="0.541007" stop-color="#EBEBEB" stop-opacity="0.692871"/>
<stop offset="0.819808" stop-color="#A4A4A4" stop-opacity="0.645026"/>
<stop offset="1" stop-opacity="0"/>
</linearGradient>
<linearGradient id="paint1_linear_7_154" x1="18.9592" y1="105.065" x2="83.6458" y2="10.779" gradientUnits="userSpaceOnUse">
<stop stop-color="white" stop-opacity="0.652873"/>
<stop offset="0.403152" stop-color="#C7C7C7" stop-opacity="0.779455"/>
<stop offset="0.541007" stop-color="#EBEBEB" stop-opacity="0.692871"/>
<stop offset="0.819808" stop-color="#A4A4A4" stop-opacity="0.645026"/>
<stop offset="1" stop-opacity="0"/>
</linearGradient>
</defs>
</svg>
