<svg width="698" height="603" viewBox="0 0 698 603" fill="none" xmlns="http://www.w3.org/2000/svg">
<path d="M558.141 14.6306C549.196 19.8602 546.21 31.3414 551.47 40.2748C556.736 49.2052 568.255 52.2051 577.199 46.9755C586.148 41.7472 589.131 30.2604 583.874 21.3327C578.609 12.398 567.086 9.39671 558.141 14.6306ZM554.709 69.0054C560.101 69.8821 565.62 69.5159 570.746 67.6338L587.754 61.3757C596.525 58.1495 603.874 51.7876 607.948 43.3917C608.915 41.393 610.119 39.4741 611.562 37.6687C622.379 24.128 642.424 22.2417 655.66 33.7967C667.475 44.1116 669.505 61.9373 660.315 74.599C647.941 91.6592 630.639 87.0561 620.861 82.289C615.371 79.6167 609.023 79.337 603.297 81.444L588.938 86.7232C579.993 90.0109 576.739 100.95 582.422 108.598L589.016 117.47C596.779 127.907 608.507 134.535 621.405 136.344C627.965 137.265 634.375 139.898 639.936 144.32C656.731 157.677 659.31 182.226 645.473 198.724C632.636 214.031 608.463 216.586 592.632 204.319C581.159 195.429 576.143 181.383 578.262 168.081C580.292 155.311 577.285 142.244 569.552 131.844L557.035 115.005C553.722 110.546 549.34 106.961 544.24 104.757C542.737 104.112 541.305 103.26 539.968 102.196C534.074 97.5101 531.748 90.0173 533.371 83.1675L533.973 81.1555C534.65 79.2747 535.636 77.4643 536.955 75.8154C541.344 70.3198 548.207 67.944 554.709 69.0054Z" fill="url(#paint0_linear_3_753)"/>
<path d="M558.959 353.005C550.015 358.235 547.028 369.716 552.293 378.651C557.55 387.578 569.073 390.58 578.018 385.35C586.968 380.117 589.953 368.64 584.688 359.706C579.428 350.772 567.909 347.772 558.959 353.005ZM582.241 333.635C576.901 332.481 571.366 332.571 566.152 334.187L548.841 339.57C539.914 342.345 532.248 348.321 527.752 356.499C526.681 358.442 525.379 360.301 523.845 362.026C512.348 374.997 492.232 375.857 479.606 363.646C468.333 352.743 467.222 334.84 477.045 322.659C490.276 306.259 507.324 311.733 516.848 316.994C522.192 319.947 528.521 320.551 534.346 318.737L548.961 314.198C558.059 311.369 561.877 300.614 556.592 292.686L550.46 283.494C543.245 272.671 531.863 265.457 519.079 262.994C512.57 261.734 506.309 258.78 500.98 254.082C484.888 239.883 483.569 215.24 498.236 199.472C511.846 184.84 536.118 183.521 551.301 196.576C562.309 206.042 566.592 220.322 563.8 233.504C561.113 246.149 563.446 259.352 570.637 270.13L582.275 287.587C585.351 292.204 589.546 296.006 594.533 298.467C595.991 299.191 597.382 300.114 598.661 301.243C604.306 306.224 606.252 313.825 604.275 320.581L603.576 322.562C602.799 324.406 601.721 326.164 600.318 327.74C595.651 333.007 588.676 335.025 582.241 333.635Z" fill="url(#paint1_linear_3_753)"/>
<path d="M139.891 127.052C128.862 133.5 125.18 147.657 131.666 158.672C138.159 169.683 152.362 173.382 163.39 166.934C174.424 160.487 178.103 146.324 171.621 135.316C165.129 124.299 150.921 120.598 139.891 127.052ZM135.66 194.097C142.308 195.178 149.113 194.727 155.434 192.406L176.405 184.69C187.22 180.712 196.281 172.867 201.305 162.515C202.497 160.05 203.981 157.684 205.761 155.458C219.098 138.762 243.814 136.436 260.135 150.684C274.703 163.402 277.206 185.382 265.874 200.994C250.617 222.03 229.284 216.354 217.226 210.476C210.457 207.181 202.63 206.836 195.57 209.434L177.866 215.944C166.836 219.997 162.824 233.485 169.83 242.916L177.962 253.855C187.533 266.724 201.994 274.897 217.897 277.127C225.986 278.263 233.89 281.51 240.747 286.962C261.455 303.432 264.635 333.701 247.574 354.043C231.745 372.918 201.939 376.067 182.419 360.942C168.274 349.981 162.088 332.661 164.701 316.26C167.204 300.514 163.496 284.402 153.962 271.579L138.528 250.816C134.442 245.317 129.04 240.897 122.751 238.18C120.898 237.384 119.132 236.334 117.484 235.022C110.217 229.244 107.348 220.005 109.35 211.559L110.092 209.078C110.926 206.759 112.143 204.527 113.769 202.494C119.18 195.718 127.643 192.788 135.66 194.097Z" fill="url(#paint2_linear_3_753)"/>
<path d="M140.9 544.275C129.872 550.724 126.189 564.88 132.681 575.897C139.163 586.905 153.371 590.606 164.4 584.157C175.435 577.706 179.116 563.554 172.625 552.538C166.139 541.523 151.936 537.824 140.9 544.275ZM169.608 520.392C163.023 518.968 156.198 519.08 149.769 521.073L128.425 527.71C117.417 531.131 107.965 538.501 102.421 548.584C101.101 550.979 99.4957 553.272 97.6032 555.399C83.4282 571.392 58.6236 572.452 43.0557 557.396C29.1561 543.952 27.7857 521.877 39.8981 506.858C56.2124 486.636 77.2328 493.386 88.9757 499.872C95.5658 503.514 103.369 504.259 110.552 502.023L128.572 496.425C139.791 492.938 144.498 479.676 137.982 469.901L130.42 458.567C121.525 445.222 107.49 436.327 91.7271 433.29C83.7011 431.736 75.9811 428.093 69.4111 422.3C49.5687 404.793 47.9423 374.407 66.0274 354.966C82.8087 336.924 112.736 335.298 131.457 351.395C145.031 363.067 150.312 380.674 146.869 396.927C143.556 412.519 146.432 428.799 155.299 442.089L169.649 463.613C173.442 469.306 178.615 473.994 184.763 477.028C186.562 477.922 188.277 479.059 189.854 480.452C196.815 486.594 199.214 495.965 196.776 504.296L195.914 506.738C194.955 509.012 193.627 511.18 191.896 513.123C186.142 519.617 177.542 522.106 169.608 520.392Z" fill="url(#paint3_linear_3_753)"/>
<defs>
<linearGradient id="paint0_linear_3_753" x1="576.462" y1="5.94953" x2="531.21" y2="370.732" gradientUnits="userSpaceOnUse">
<stop stop-color="#30AB4C"/>
<stop offset="0.853177" stop-opacity="0"/>
</linearGradient>
<linearGradient id="paint1_linear_3_753" x1="576.462" y1="5.94953" x2="531.21" y2="370.732" gradientUnits="userSpaceOnUse">
<stop stop-color="#30AB4C"/>
<stop offset="0.853177" stop-opacity="0"/>
</linearGradient>
<linearGradient id="paint2_linear_3_753" x1="162.482" y1="116.348" x2="106.685" y2="566.133" gradientUnits="userSpaceOnUse">
<stop stop-color="#30AB4C"/>
<stop offset="0.853177" stop-opacity="0"/>
</linearGradient>
<linearGradient id="paint3_linear_3_753" x1="162.482" y1="116.348" x2="106.685" y2="566.133" gradientUnits="userSpaceOnUse">
<stop stop-color="#30AB4C"/>
<stop offset="0.853177" stop-opacity="0"/>
</linearGradient>
</defs>
</svg>
