<svg width="509" height="240" viewBox="0 0 509 240" fill="none" xmlns="http://www.w3.org/2000/svg">
<path d="M446.974 6.44447C443.034 8.74802 441.719 13.8053 444.036 17.7402C446.355 21.6739 451.429 22.9953 455.369 20.6917C459.311 18.3888 460.625 13.3291 458.309 9.3966C455.99 5.46107 450.915 4.13906 446.974 6.44447ZM445.463 30.3955C447.838 30.7816 450.269 30.6203 452.527 29.7913L460.018 27.0347C463.882 25.6136 467.119 22.8113 468.913 19.1131C469.339 18.2327 469.869 17.3875 470.505 16.5923C475.27 10.6279 484.099 9.79701 489.93 14.8867C495.134 19.4302 496.028 27.2821 491.98 32.8593C486.529 40.374 478.908 38.3464 474.601 36.2466C472.183 35.0695 469.387 34.9463 466.865 35.8744L460.54 38.1998C456.6 39.6479 455.166 44.4663 457.67 47.8352L460.574 51.743C463.994 56.3404 469.159 59.2598 474.841 60.0566C477.73 60.4624 480.554 61.6223 483.003 63.57C490.401 69.4536 491.537 80.2669 485.442 87.5337C479.788 94.2763 469.14 95.4015 462.167 89.9982C457.113 86.0824 454.904 79.8954 455.837 74.0363C456.731 68.4114 455.407 62.6555 452.001 58.0746L446.487 50.6574C445.028 48.6931 443.098 47.1139 440.851 46.1433C440.189 45.8591 439.558 45.484 438.969 45.0153C436.374 42.9512 435.349 39.6508 436.064 36.6336L436.329 35.7473C436.627 34.9188 437.062 34.1214 437.642 33.3951C439.575 30.9744 442.599 29.9279 445.463 30.3955Z" fill="url(#paint0_linear_3_757)"/>
<path d="M447.335 155.491C443.395 157.795 442.079 162.852 444.398 166.788C446.714 170.72 451.79 172.042 455.73 169.739C459.672 167.434 460.987 162.378 458.668 158.443C456.351 154.508 451.277 153.187 447.335 155.491ZM457.59 146.959C455.238 146.451 452.8 146.491 450.503 147.202L442.878 149.573C438.946 150.796 435.569 153.428 433.588 157.031C433.117 157.886 432.544 158.705 431.867 159.465C426.804 165.178 417.943 165.557 412.381 160.178C407.416 155.376 406.926 147.49 411.253 142.125C417.081 134.901 424.59 137.312 428.785 139.629C431.14 140.93 433.927 141.196 436.493 140.397L442.931 138.397C446.938 137.152 448.62 132.414 446.292 128.922L443.591 124.873C440.413 120.106 435.399 116.928 429.768 115.843C426.901 115.288 424.143 113.987 421.796 111.918C414.708 105.664 414.127 94.8086 420.587 87.8635C426.582 81.4181 437.273 80.8371 443.961 86.5878C448.81 90.7573 450.697 97.0473 449.467 102.853C448.283 108.423 449.311 114.239 452.478 118.987L457.605 126.676C458.96 128.71 460.808 130.384 463.004 131.468C463.647 131.788 464.259 132.194 464.823 132.691C467.309 134.885 468.166 138.233 467.296 141.209L466.987 142.082C466.645 142.894 466.17 143.669 465.552 144.363C463.497 146.683 460.424 147.572 457.59 146.959Z" fill="url(#paint1_linear_3_757)"/>
<path d="M3.66898 53.8033C0.603272 58.2386 1.72319 64.3096 6.17056 67.3634C10.6199 70.4145 16.7115 69.2926 19.7772 64.8574C22.8452 60.4218 21.7227 54.3488 17.2779 51.297C12.8283 48.2436 6.73439 49.3658 3.66898 53.8033ZM14.0243 80.1965C16.7593 79.4228 19.281 78.0348 21.2835 76.0186L27.9248 69.3228C31.35 65.8703 33.414 61.2525 33.4864 56.3967C33.5021 55.2414 33.6471 54.0717 33.9301 52.9026C36.0485 44.1364 45.0844 38.8332 53.8697 41.3667C61.7118 43.6285 66.5938 51.5865 65.0487 59.5801C62.9709 70.3487 53.7998 71.988 48.1396 71.8935C44.9626 71.8424 41.908 73.1083 39.6721 75.3626L34.0646 81.0134C30.571 84.5332 31.4453 90.4074 35.8088 92.7623L40.8716 95.4932C46.8299 98.7051 53.8189 99.2477 60.2986 97.2606C63.5948 96.2504 67.1968 96.0805 70.7926 96.9409C81.6524 99.5406 88.2741 110.547 85.3825 121.373C82.7004 131.417 71.8655 137.944 61.7 135.646C54.3333 133.981 48.875 128.463 46.9453 121.725C45.0906 115.257 40.7952 109.758 34.8594 106.557L25.2497 101.373C22.7056 100 19.8504 99.2746 16.9601 99.3589C16.1096 99.3855 15.2468 99.2993 14.3822 99.092C10.5715 98.1802 7.82473 95.1597 7.08185 91.5725L6.92244 90.4914C6.82742 89.4555 6.89396 88.3847 7.15275 87.3168C8.01172 83.7593 10.7249 81.1278 14.0243 80.1965Z" fill="url(#paint2_linear_3_757)"/>
<path d="M78.5635 213.166C75.4978 217.602 76.6177 223.673 81.0674 226.726C85.5121 229.778 91.606 228.656 94.6717 224.22C97.7394 219.782 96.6198 213.714 92.1701 210.66C87.7228 207.607 81.6312 208.728 78.5635 213.166ZM85.2758 198.907C82.5036 199.538 79.9139 200.8 77.8111 202.71L70.8346 209.06C67.2364 212.334 64.9379 216.84 64.6186 221.686C64.5416 222.837 64.3373 224.001 63.9935 225.152C61.429 233.799 52.1333 238.634 43.4915 235.657C35.7756 232.998 31.3094 224.802 33.259 216.895C35.8861 206.249 45.1297 205.077 50.7784 205.46C53.9486 205.675 57.0659 204.567 59.4128 202.429L65.304 197.07C68.9712 193.733 68.4031 187.822 64.1655 185.247L59.25 182.264C53.4652 178.749 46.5099 177.854 39.94 179.508C36.5935 180.347 32.9908 180.332 29.444 179.291C18.73 176.14 12.6817 164.811 16.1255 154.147C19.3205 144.251 30.4741 138.284 40.5076 141.097C47.7826 143.136 52.9463 148.926 54.5323 155.755C56.0497 162.309 60.0568 168.021 65.8208 171.52L75.152 177.188C77.619 178.687 80.4343 179.556 83.3273 179.618C84.1746 179.639 85.0336 179.768 85.8851 180.019C89.6438 181.124 92.2349 184.279 92.7904 187.9L92.8968 188.988C92.9363 190.029 92.8154 191.095 92.5007 192.147C91.4602 195.658 88.616 198.145 85.2758 198.907Z" fill="url(#paint3_linear_3_757)"/>
<defs>
<linearGradient id="paint0_linear_3_757" x1="455.044" y1="2.62065" x2="435.112" y2="163.3" gradientUnits="userSpaceOnUse">
<stop stop-color="white"/>
<stop offset="0.853177" stop-opacity="0"/>
</linearGradient>
<linearGradient id="paint1_linear_3_757" x1="455.044" y1="2.62065" x2="435.112" y2="163.3" gradientUnits="userSpaceOnUse">
<stop stop-color="white"/>
<stop offset="0.853177" stop-opacity="0"/>
</linearGradient>
<linearGradient id="paint2_linear_3_757" x1="10.396" y1="45.6759" x2="69.3831" y2="227.635" gradientUnits="userSpaceOnUse">
<stop stop-color="white"/>
<stop offset="0.853177" stop-opacity="0"/>
</linearGradient>
<linearGradient id="paint3_linear_3_757" x1="10.396" y1="45.6759" x2="69.3831" y2="227.635" gradientUnits="userSpaceOnUse">
<stop stop-color="white"/>
<stop offset="0.853177" stop-opacity="0"/>
</linearGradient>
</defs>
</svg>
