<svg width="798" height="534" viewBox="0 0 798 534" fill="none" xmlns="http://www.w3.org/2000/svg">
<path d="M630.925 17.5291C620.209 23.7948 616.631 37.5505 622.933 48.2536C629.243 58.9533 643.043 62.5475 653.759 56.2818C664.481 50.0178 668.056 36.2553 661.757 25.5589C655.449 14.8542 641.643 11.2583 630.925 17.5291ZM626.814 82.6762C633.274 83.7265 639.886 83.2877 646.028 81.0327L666.406 73.5349C676.915 69.6695 685.719 62.0472 690.601 51.9881C691.759 49.5934 693.201 47.2943 694.93 45.1313C707.89 28.908 731.906 26.648 747.765 40.4922C761.921 52.8505 764.352 74.2077 753.341 89.3778C738.516 109.818 717.787 104.303 706.071 98.5913C699.493 95.3896 691.888 95.0545 685.028 97.5789L667.825 103.904C657.107 107.843 653.209 120.949 660.017 130.113L667.918 140.742C677.218 153.247 691.269 161.188 706.723 163.355C714.583 164.459 722.263 167.614 728.925 172.912C749.047 188.915 752.138 218.327 735.559 238.093C720.179 256.433 691.217 259.494 672.25 244.797C658.504 234.146 652.494 217.317 655.033 201.38C657.465 186.08 653.862 170.424 644.598 157.964L629.601 137.789C625.631 132.446 620.382 128.151 614.27 125.511C612.47 124.738 610.754 123.717 609.152 122.443C602.091 116.828 599.304 107.851 601.249 99.6439L601.97 97.2333C602.781 94.9799 603.963 92.8108 605.543 90.8353C610.801 84.2509 619.024 81.4045 626.814 82.6762Z" fill="url(#paint0_linear_3_749)"/>
<path d="M631.906 422.939C621.19 429.205 617.611 442.961 623.919 453.665C630.218 464.362 644.024 467.958 654.74 461.692C665.463 455.423 669.04 441.672 662.732 430.967C656.43 420.264 642.629 416.67 631.906 422.939ZM659.8 399.732C653.402 398.349 646.771 398.457 640.523 400.393L619.784 406.842C609.088 410.167 599.903 417.328 594.516 427.126C593.233 429.453 591.674 431.681 589.835 433.748C576.061 449.288 551.959 450.318 536.832 435.688C523.326 422.625 521.994 401.175 533.764 386.581C549.616 366.932 570.041 373.491 581.452 379.793C587.855 383.331 595.438 384.056 602.417 381.883L619.927 376.444C630.828 373.055 635.402 360.169 629.07 350.67L621.723 339.658C613.079 326.69 599.441 318.047 584.125 315.096C576.326 313.587 568.825 310.047 562.441 304.418C543.161 287.407 541.58 257.881 559.153 238.99C575.459 221.459 604.539 219.878 622.73 235.52C635.92 246.862 641.051 263.97 637.706 279.763C634.486 294.913 637.281 310.732 645.897 323.646L659.841 344.561C663.526 350.093 668.553 354.648 674.527 357.596C676.275 358.464 677.941 359.57 679.473 360.923C686.237 366.89 688.569 375.997 686.2 384.092L685.362 386.465C684.43 388.675 683.139 390.781 681.458 392.669C675.867 398.979 667.51 401.398 659.8 399.732Z" fill="url(#paint1_linear_3_749)"/>
<path d="M11.0202 125.878C6.29656 137.358 11.7905 150.467 23.2916 155.157C34.7959 159.841 47.9501 154.333 52.6737 142.853C57.4024 131.372 51.9017 118.26 40.4074 113.572C28.9012 108.883 15.742 114.393 11.0202 125.878ZM47.2473 180.179C53.0209 177.099 58.0137 172.741 61.5307 167.224L73.1907 148.907C79.2046 139.462 81.5853 128.062 79.369 117.103C78.8384 114.496 78.5913 111.794 78.6553 109.025C79.1259 88.2665 96.8551 71.909 117.86 73.3043C136.61 74.5502 151.492 90.0607 151.932 108.8C152.534 134.044 132.706 142.225 119.926 144.786C112.754 146.227 106.502 150.572 102.577 156.738L92.7309 172.198C86.5959 181.828 91.441 194.615 102.411 197.774L115.138 201.437C130.116 205.744 146.105 203.54 159.708 195.895C166.628 192.007 174.648 189.86 183.159 190.034C208.863 190.562 229.153 212.079 227.951 237.849C226.839 261.759 205.662 281.751 181.668 281.562C164.279 281.425 149.297 271.686 141.654 257.472C134.313 243.831 121.956 233.564 107.034 229.272L82.8759 222.319C76.4798 220.477 69.701 220.243 63.2404 221.849C61.3401 222.326 59.3568 222.555 57.3102 222.512C48.2909 222.328 40.6317 216.878 37.203 209.173L36.3146 206.818C35.5934 204.535 35.2184 202.093 35.2774 199.564C35.4668 191.14 40.2811 183.891 47.2473 180.179Z" fill="url(#paint2_linear_3_749)"/>
<path d="M257.585 447.691C252.862 459.171 258.356 472.28 269.862 476.969C281.356 481.657 294.515 476.146 299.239 464.667C303.966 453.18 298.474 440.076 286.968 435.387C275.466 430.696 262.312 436.205 257.585 447.691ZM265.699 412.324C259.772 415.103 254.564 419.21 250.77 424.537L238.186 442.239C231.696 451.368 228.733 462.631 230.389 473.689C230.78 476.317 230.89 479.035 230.681 481.793C229.148 502.502 210.605 517.934 189.706 515.47C171.045 513.27 156.982 497.019 157.494 478.278C158.188 453.04 178.408 445.873 191.303 443.968C198.541 442.899 205.01 438.878 209.242 432.919L219.87 417.978C226.485 408.674 222.311 395.653 211.516 391.938L198.996 387.635C184.261 382.562 168.175 383.957 154.206 390.895C147.088 394.423 138.977 396.156 130.487 395.55C104.841 393.71 85.6838 371.188 88.2061 345.511C90.5451 321.683 112.713 302.796 136.663 304.207C154.028 305.23 168.482 315.725 175.396 330.312C182.02 344.313 193.833 355.198 208.514 360.245L232.283 368.424C238.568 370.589 245.327 371.164 251.865 369.887C253.781 369.518 255.777 369.386 257.816 369.534C266.813 370.179 274.188 376.007 277.211 383.881L277.984 386.276C278.583 388.598 278.833 391.056 278.641 393.577C278.02 401.985 272.84 408.975 265.699 412.324Z" fill="url(#paint3_linear_3_749)"/>
<defs>
<linearGradient id="paint0_linear_3_749" x1="652.876" y1="7.1282" x2="598.659" y2="444.178" gradientUnits="userSpaceOnUse">
<stop stop-color="#30AB4C"/>
<stop offset="0.853177" stop-opacity="0"/>
</linearGradient>
<linearGradient id="paint1_linear_3_749" x1="652.876" y1="7.1282" x2="598.659" y2="444.178" gradientUnits="userSpaceOnUse">
<stop stop-color="#30AB4C"/>
<stop offset="0.853177" stop-opacity="0"/>
</linearGradient>
<linearGradient id="paint2_linear_3_749" x1="22.1715" y1="104.298" x2="244.022" y2="484.738" gradientUnits="userSpaceOnUse">
<stop stop-color="#30AB4C"/>
<stop offset="0.853177" stop-opacity="0"/>
</linearGradient>
<linearGradient id="paint3_linear_3_749" x1="22.1715" y1="104.298" x2="244.022" y2="484.738" gradientUnits="userSpaceOnUse">
<stop stop-color="#30AB4C"/>
<stop offset="0.853177" stop-opacity="0"/>
</linearGradient>
</defs>
</svg>
