<svg width="40" height="40" viewBox="0 0 40 40" fill="none" xmlns="http://www.w3.org/2000/svg">
<path d="M13.8212 19.92V24.84C12.0841 25.44 11.1274 25.632 10.0449 25.632C7.12457 25.632 4.93433 24.528 3.5497 23.232C1.91331 21.672 1.00701 19.488 1.00701 17.4C1.00701 15.12 2.03919 12.96 3.5497 11.496C5.03503 10.056 7.27562 9 9.89384 9C10.6994 9 12.0086 9.12 13.8212 9.816V14.784C12.4114 13.128 10.7498 13.032 10.0197 13.032C8.76096 13.032 7.8043 13.392 6.9987 14.088C5.96652 15 5.53854 16.248 5.53854 17.376C5.53854 18.48 6.01687 19.704 6.898 20.496C7.62808 21.144 8.78613 21.6 10.0197 21.6C10.6743 21.6 12.2855 21.528 13.8212 19.92Z" fill="black"/>
<path d="M15.6556 18.552V15.672H19.4822V12H22.755V15.672H26.5816V18.552H22.755V22.224H19.4822V18.552H15.6556Z" fill="black"/>
<path d="M28.2432 18.552V15.672H32.0698V12H35.3426V15.672H39.1692V18.552H35.3426V22.224H32.0698V18.552H28.2432Z" fill="black"/>
<path d="M0 27.672H40V31H0V27.672Z" fill="black"/>
</svg>
